<svg width="129" height="129" viewBox="0 0 129 129" fill="none" xmlns="http://www.w3.org/2000/svg">
<path d="M94.2959 34.9636L34.8518 94.4078" stroke="white" stroke-width="3" stroke-miterlimit="10"/>
<path d="M94.3241 94.5842L35.0961 35.3562" stroke="white" stroke-width="3" stroke-miterlimit="10"/>
<path d="M21.5278 40.7153C32.1183 40.7153 40.7035 32.1301 40.7035 21.5397C40.7035 10.9492 32.1183 2.36401 21.5278 2.36401C10.9374 2.36401 2.35217 10.9492 2.35217 21.5397C2.35217 32.1301 10.9374 40.7153 21.5278 40.7153Z" stroke="white" stroke-width="3" stroke-miterlimit="10"/>
<path d="M107.824 40.7153C118.415 40.7153 127 32.1301 127 21.5397C127 10.9492 118.415 2.36401 107.824 2.36401C97.2339 2.36401 88.6487 10.9492 88.6487 21.5397C88.6487 32.1301 97.2339 40.7153 107.824 40.7153Z" stroke="white" stroke-width="3" stroke-miterlimit="10"/>
<path d="M21.5278 127.364C32.1183 127.364 40.7035 118.779 40.7035 108.188C40.7035 97.5979 32.1183 89.0127 21.5278 89.0127C10.9374 89.0127 2.35217 97.5979 2.35217 108.188C2.35217 118.779 10.9374 127.364 21.5278 127.364Z" stroke="white" stroke-width="3" stroke-miterlimit="10"/>
<path d="M107.824 127.364C118.415 127.364 127 118.779 127 108.188C127 97.5979 118.415 89.0127 107.824 89.0127C97.2339 89.0127 88.6487 97.5979 88.6487 108.188C88.6487 118.779 97.2339 127.364 107.824 127.364Z" stroke="white" stroke-width="3" stroke-miterlimit="10"/>
</svg>
