<svg width="129" height="129" viewBox="0 0 129 129" fill="none" xmlns="http://www.w3.org/2000/svg">
<path d="M64.5 126.79C99.0178 126.79 127 98.8078 127 64.29C127 29.7722 99.0178 1.79004 64.5 1.79004C29.9822 1.79004 2 29.7722 2 64.29C2 98.8078 29.9822 126.79 64.5 126.79Z" stroke="white" stroke-width="3" stroke-miterlimit="10"/>
<path d="M64.5 89.2915C78.308 89.2915 89.5016 78.098 89.5016 64.2899C89.5016 50.4819 78.308 39.2883 64.5 39.2883C50.692 39.2883 39.4984 50.4819 39.4984 64.2899C39.4984 78.098 50.692 89.2915 64.5 89.2915Z" stroke="white" stroke-width="3" stroke-miterlimit="10"/>
<path d="M64.5 76.7909C71.404 76.7909 77.0008 71.1941 77.0008 64.2901C77.0008 57.3861 71.404 51.7893 64.5 51.7893C57.596 51.7893 51.9992 57.3861 51.9992 64.2901C51.9992 71.1941 57.596 76.7909 64.5 76.7909Z" stroke="white" stroke-width="3" stroke-miterlimit="10"/>
<path d="M64.5 101.792C85.212 101.792 102.002 85.002 102.002 64.29C102.002 43.578 85.212 26.7876 64.5 26.7876C43.788 26.7876 26.9976 43.578 26.9976 64.29C26.9976 85.002 43.788 101.792 64.5 101.792Z" stroke="white" stroke-width="3" stroke-miterlimit="10"/>
<path d="M64.5 114.293C92.116 114.293 114.503 91.9061 114.503 64.2901C114.503 36.6741 92.116 14.2869 64.5 14.2869C36.884 14.2869 14.4968 36.6741 14.4968 64.2901C14.4968 91.9061 36.884 114.293 64.5 114.293Z" stroke="white" stroke-width="3" stroke-miterlimit="10"/>
</svg>
