<svg width="135" height="129" viewBox="0 0 135 129" fill="none" xmlns="http://www.w3.org/2000/svg">
<path d="M67.9917 38.5543C73.9593 38.5543 78.797 33.7167 78.797 27.7491C78.797 21.7815 73.9593 16.9438 67.9917 16.9438C62.0241 16.9438 57.1865 21.7815 57.1865 27.7491C57.1865 33.7167 62.0241 38.5543 67.9917 38.5543Z" stroke="white" stroke-width="3" stroke-miterlimit="10"/>
<path d="M99.6557 88.2795C104.809 81.8719 107.896 73.7277 107.896 64.8641C107.896 47.0563 95.4469 32.1589 78.7768 28.3923" stroke="white" stroke-width="3" stroke-miterlimit="10"/>
<path d="M57.3874 29.8354C43.2056 35.1496 33.1078 48.825 33.1078 64.8641C33.1078 85.5178 49.8503 102.26 70.5041 102.26C74.5239 102.26 78.3909 101.625 82.0208 100.451" stroke="white" stroke-width="3" stroke-miterlimit="10"/>
<path d="M91.6322 106.32C97.5997 106.32 102.437 101.483 102.437 95.5152C102.437 89.5476 97.5997 84.71 91.6322 84.71C85.6646 84.71 80.8269 89.5476 80.8269 95.5152C80.8269 101.483 85.6646 106.32 91.6322 106.32Z" stroke="white" stroke-width="3" stroke-miterlimit="10"/>
<path d="M18.3471 99.3098C29.5342 116.213 48.7127 127.364 70.5001 127.364C105.018 127.364 133 99.3821 133 64.864C133 30.3459 105.022 2.36401 70.5041 2.36401C35.986 2.36401 8.00006 30.3459 8.00006 64.864C8.00006 69.941 8.61107 74.8733 9.7527 79.5966" stroke="white" stroke-width="3" stroke-miterlimit="10"/>
<path d="M13.057 100.693C19.0245 100.693 23.8622 95.8549 23.8622 89.8873C23.8622 83.9197 19.0245 79.082 13.057 79.082C7.08938 79.082 2.25171 83.9197 2.25171 89.8873C2.25171 95.8549 7.08938 100.693 13.057 100.693Z" stroke="white" stroke-width="3" stroke-miterlimit="10"/>
</svg>
