<svg width="178" height="431" viewBox="0 0 178 431" fill="none" xmlns="http://www.w3.org/2000/svg">
<mask id="mask0_4_130" style="mask-type:luminance" maskUnits="userSpaceOnUse" x="0" y="0" width="178" height="431">
<path d="M178 0.92627H0V430.703H178V0.92627Z" fill="white"/>
</mask>
<g mask="url(#mask0_4_130)">
<path opacity="0.1" fill-rule="evenodd" clip-rule="evenodd" d="M-400.5 657.367C-400.5 658.203 -400.054 658.977 -399.329 659.395C-398.604 659.813 -397.712 659.813 -396.987 659.395L176.231 328.377C176.321 328.324 176.407 328.267 176.489 328.204C177.06 327.765 177.402 327.081 177.402 326.349V105.67C177.402 105.618 177.399 105.566 177.396 105.514C177.376 105.207 177.295 104.912 177.164 104.642C176.962 104.23 176.642 103.879 176.231 103.642L-205.906 -117.036C-206.631 -117.454 -207.523 -117.455 -208.248 -117.036C-208.973 -116.618 -209.419 -115.845 -209.419 -115.008V105.67C-209.419 106.507 -208.973 107.28 -208.248 107.698L-20.6941 216.009L-399.329 434.66C-400.054 435.079 -400.5 435.852 -400.5 436.688V657.367ZM-16.0106 218.713L-395.816 438.04V653.309L170.376 326.349L-16.0106 218.713ZM172.717 322.291V109.728L-11.3272 216.009L172.717 322.291ZM170.376 105.67L-16.0106 213.304L-204.735 104.318V-110.951L170.376 105.67Z" fill="#524A82"/>
<path d="M-31.618 206.446L47.1646 251.56" stroke="#F6D200" stroke-width="10" stroke-linecap="round" stroke-linejoin="round"/>
</g>
</svg>
