<svg width="437" height="661" viewBox="0 0 437 661" fill="none" xmlns="http://www.w3.org/2000/svg">
<path opacity="0.1" fill-rule="evenodd" clip-rule="evenodd" d="M163.161 188.87C163.161 189.588 163.544 190.251 164.165 190.61L324.32 283.097L0.999841 469.805C0.381128 470.163 0 470.823 0 471.537L8.34465e-06 659.982C8.37589e-06 660.696 0.381241 661.356 1.00009 661.714C1.61894 662.071 2.38137 662.071 3.00017 661.714L492.328 379.14C492.384 379.114 492.439 379.085 492.493 379.054C493.115 378.696 493.498 378.032 493.498 377.315V188.87C493.498 188.153 493.115 187.489 492.493 187.131L166.174 -1.31353C165.553 -1.67245 164.787 -1.67251 164.166 -1.31369C163.544 -0.954861 163.161 -0.291684 163.161 0.426028V188.87ZM487.481 188.875L167.179 3.9058V187.711L328.337 280.777L487.481 188.875ZM332.336 283.086L489.48 192.34V373.835L332.336 283.086ZM328.319 285.406L487.481 377.32L4.00001 656.517L4 472.692L328.319 285.406Z" fill="#524A82"/>
<path d="M128 587.426L201 544.426" stroke="#E7107E" stroke-width="10" stroke-linecap="round" stroke-linejoin="round"/>
</svg>
